<?xml version="1.0" encoding="UTF-8" standalone="no"?>
<svg width="36px" height="36px" viewBox="0 0 36 36" version="1.1" xmlns="http://www.w3.org/2000/svg" xmlns:xlink="http://www.w3.org/1999/xlink" xmlns:sketch="http://www.bohemiancoding.com/sketch/ns">
    <!-- Generator: Sketch 3.3.3 (12072) - http://www.bohemiancoding.com/sketch -->
    <title>Shape Copy</title>
    <desc>Created with Sketch.</desc>
    <defs></defs>
    <g id="Page-1" stroke="none" stroke-width="1" fill="none" fill-rule="evenodd" sketch:type="MSPage">
        <g id="bouquet-2" sketch:type="MSArtboardGroup" transform="translate(-2440.000000, -88.000000)" fill="#FFFFFF">
            <path d="M2454.27586,107.862069 L2441.86207,107.862069 C2440.83359,107.862069 2440,108.695655 2440,109.724138 L2440,122.137931 C2440,123.166414 2440.83359,124 2441.86207,124 L2454.27586,124 C2455.30434,124 2456.13793,123.166414 2456.13793,122.137931 L2456.13793,109.724138 C2456.13793,108.695655 2455.30434,107.862069 2454.27586,107.862069 L2454.27586,107.862069 Z M2454.27586,88 L2441.86207,88 C2440.83359,88 2440,88.8335862 2440,89.862069 L2440,102.275862 C2440,103.304345 2440.83359,104.137931 2441.86207,104.137931 L2454.27586,104.137931 C2455.30434,104.137931 2456.13793,103.304345 2456.13793,102.275862 L2456.13793,89.862069 C2456.13793,88.8335862 2455.30434,88 2454.27586,88 L2454.27586,88 Z M2474.13793,88 L2461.72414,88 C2460.69566,88 2459.86207,88.8335862 2459.86207,89.862069 L2459.86207,102.275862 C2459.86207,103.304345 2460.69566,104.137931 2461.72414,104.137931 L2474.13793,104.137931 C2475.16641,104.137931 2476,103.304345 2476,102.275862 L2476,89.862069 C2476,88.8335862 2475.16641,88 2474.13793,88 L2474.13793,88 Z M2474.13793,107.862069 L2461.72414,107.862069 C2460.69566,107.862069 2459.86207,108.695655 2459.86207,109.724138 L2459.86207,122.137931 C2459.86207,123.166414 2460.69566,124 2461.72414,124 L2474.13793,124 C2475.16641,124 2476,123.166414 2476,122.137931 L2476,109.724138 C2476,108.695655 2475.16641,107.862069 2474.13793,107.862069 L2474.13793,107.862069 Z" id="Shape-Copy" sketch:type="MSShapeGroup"></path>
        </g>
    </g>
</svg>