<?xml version="1.0" encoding="UTF-8" standalone="no"?>
<svg width="36px" height="31px" viewBox="0 0 36 31" version="1.1" xmlns="http://www.w3.org/2000/svg" xmlns:xlink="http://www.w3.org/1999/xlink" xmlns:sketch="http://www.bohemiancoding.com/sketch/ns">
    <!-- Generator: Sketch 3.3.3 (12072) - http://www.bohemiancoding.com/sketch -->
    <title>Shape Copy 2</title>
    <desc>Created with Sketch.</desc>
    <defs></defs>
    <g id="Page-1" stroke="none" stroke-width="1" fill="none" fill-rule="evenodd" sketch:type="MSPage">
        <g id="bouquet-2" sketch:type="MSArtboardGroup" transform="translate(-2384.000000, -90.000000)" fill="#FFFFFF">
            <path d="M2385.6875,94.8 L2418.3125,94.8 C2419.24456,94.8 2420,93.7256 2420,92.4 C2420,91.0744 2419.24456,90 2418.3125,90 L2385.6875,90 C2384.75544,90 2384,91.0744 2384,92.4 C2384,93.7256 2384.75544,94.8 2385.6875,94.8 L2385.6875,94.8 Z M2418.3125,102.8 L2385.6875,102.8 C2384.75544,102.8 2384,103.8744 2384,105.2 C2384,106.5256 2384.75544,107.6 2385.6875,107.6 L2418.3125,107.6 C2419.24456,107.6 2420,106.5256 2420,105.2 C2420,103.8744 2419.24456,102.8 2418.3125,102.8 L2418.3125,102.8 Z M2418.3125,115.6 L2385.6875,115.6 C2384.75544,115.6 2384,116.6744 2384,118 C2384,119.3256 2384.75544,120.4 2385.6875,120.4 L2418.3125,120.4 C2419.24456,120.4 2420,119.3256 2420,118 C2420,116.6744 2419.24456,115.6 2418.3125,115.6 L2418.3125,115.6 Z" id="Shape-Copy-2" sketch:type="MSShapeGroup"></path>
        </g>
    </g>
</svg>