<?xml version="1.0" encoding="UTF-8" standalone="no"?>
<svg width="44px" height="44px" viewBox="0 0 44 44" version="1.1" xmlns="http://www.w3.org/2000/svg" xmlns:xlink="http://www.w3.org/1999/xlink" xmlns:sketch="http://www.bohemiancoding.com/sketch/ns">
    <!-- Generator: Sketch 3.3.3 (12072) - http://www.bohemiancoding.com/sketch -->
    <title>Shape</title>
    <desc>Created with Sketch.</desc>
    <defs></defs>
    <g id="Page-1" stroke="none" stroke-width="1" fill="none" fill-rule="evenodd" sketch:type="MSPage">
        <g id="bouquet-2" sketch:type="MSArtboardGroup" transform="translate(-1144.000000, -210.000000)" fill="#FFFFFF">
            <path d="M1166,227.875 C1163.72162,227.875 1161.875,229.721625 1161.875,232 C1161.875,234.278375 1163.72162,236.125 1166,236.125 C1168.27838,236.125 1170.125,234.278375 1170.125,232 C1170.125,229.722312 1168.27838,227.875 1166,227.875 L1166,227.875 Z M1166,218.9375 C1158.78606,218.9375 1152.9375,224.785375 1152.9375,232 C1152.9375,239.213938 1158.78606,245.0625 1166,245.0625 C1173.21394,245.0625 1179.0625,239.213938 1179.0625,232 C1179.0625,224.786063 1173.21394,218.9375 1166,218.9375 L1166,218.9375 Z M1166,240.9375 C1161.06375,240.9375 1157.0625,236.935563 1157.0625,232 C1157.0625,227.06375 1161.06375,223.0625 1166,223.0625 C1170.93625,223.0625 1174.9375,227.06375 1174.9375,232 C1174.9375,236.93625 1170.93625,240.9375 1166,240.9375 L1166,240.9375 Z M1166,210 C1153.84981,210 1144,219.849813 1144,232 C1144,244.150188 1153.84981,254 1166,254 C1178.15019,254 1188,244.150188 1188,232 C1188,219.849813 1178.15019,210 1166,210 L1166,210 Z M1166,249.875 C1156.12819,249.875 1148.125,241.8725 1148.125,232 C1148.125,222.128187 1156.12819,214.125 1166,214.125 C1175.87181,214.125 1183.875,222.1275 1183.875,232 C1183.875,241.8725 1175.8725,249.875 1166,249.875 L1166,249.875 Z" id="Shape" sketch:type="MSShapeGroup"></path>
        </g>
    </g>
</svg>