<?xml version="1.0" encoding="UTF-8" standalone="no"?>
<svg width="39px" height="38px" viewBox="0 0 39 38" version="1.1" xmlns="http://www.w3.org/2000/svg" xmlns:xlink="http://www.w3.org/1999/xlink" xmlns:sketch="http://www.bohemiancoding.com/sketch/ns">
    <!-- Generator: Sketch 3.3.3 (12072) - http://www.bohemiancoding.com/sketch -->
    <title>Shape</title>
    <desc>Created with Sketch.</desc>
    <defs></defs>
    <g id="Page-1" stroke="none" stroke-width="1" fill="none" fill-rule="evenodd" sketch:type="MSPage">
        <g id="bouquet-2" sketch:type="MSArtboardGroup" transform="translate(-1147.000000, -373.000000)" fill="#FFFFFF">
            <path d="M1185.2629,381.2342 L1185.2629,381.2342 L1185.2473,381.2212 C1185.2005,381.1835 1185.15305,381.14515 1185.1017,381.112 L1174.86355,373.43355 L1174.8629,373.4342 C1174.5288,373.1664 1174.11085,373 1173.65,373 C1173.32825,373 1173.0286,373.08515 1172.76145,373.2236 L1172.7595,373.22035 L1159.51315,380.44575 L1150.16355,373.43355 L1150.1629,373.4342 C1149.8288,373.1664 1149.41085,373 1148.95,373 C1147.87295,373 1147,373.87295 1147,374.95 L1147,400.95 C1147,401.63705 1147.3562,402.237 1147.8918,402.5841 L1158.17155,410.29375 C1158.4998,410.5453 1158.90475,410.7 1159.35,410.7 C1159.6932,410.7 1160.0117,410.6038 1160.29185,410.44715 L1160.2938,410.4517 L1173.4706,403.264 L1182.92355,410.35225 L1182.93135,410.34185 C1183.2479,410.56675 1183.63205,410.7 1184.05,410.7 C1185.12705,410.7 1186,409.82705 1186,408.75 L1186,382.75 C1186,382.1338 1185.7088,381.5917 1185.2629,381.2342 L1185.2629,381.2342 Z M1157.4,404.8409 L1150.9,399.9659 L1150.9,378.86105 L1157.4,383.73605 L1157.4,404.8409 L1157.4,404.8409 Z M1171.7,399.7878 L1161.3,405.461 L1161.3,383.9135 L1171.7,378.24095 L1171.7,399.7878 L1171.7,399.7878 Z M1182.1,404.8617 L1175.6,399.9867 L1175.6,378.8617 L1182.1,383.7367 L1182.1,404.8617 L1182.1,404.8617 Z" id="Shape" sketch:type="MSShapeGroup"></path>
        </g>
    </g>
</svg>