<?xml version="1.0" encoding="UTF-8" standalone="no"?>
<svg width="45px" height="45px" viewBox="0 0 45 45" version="1.1" xmlns="http://www.w3.org/2000/svg" xmlns:xlink="http://www.w3.org/1999/xlink" xmlns:sketch="http://www.bohemiancoding.com/sketch/ns">
    <!-- Generator: Sketch 3.3.3 (12072) - http://www.bohemiancoding.com/sketch -->
    <title>Shape</title>
    <desc>Created with Sketch.</desc>
    <defs></defs>
    <g id="Page-1" stroke="none" stroke-width="1" fill="none" fill-rule="evenodd" sketch:type="MSPage">
        <g id="bouquet-2" sketch:type="MSArtboardGroup" transform="translate(-1144.000000, -46.000000)" fill="#FFFFFF">
            <path d="M1149.95298,55.6248077 L1151.68375,57.3555769 L1151.69154,57.3477885 C1152.15798,57.8202885 1152.80096,58.1153846 1153.51923,58.1153846 C1154.95317,58.1153846 1156.11538,56.9531731 1156.11538,55.5192308 C1156.11538,54.8009615 1155.82029,54.1579808 1155.34692,53.6906731 L1155.35471,53.6828846 L1153.62394,51.9521154 L1153.61615,51.9599038 C1153.14971,51.4874038 1152.50673,51.1923077 1151.78846,51.1923077 C1150.35452,51.1923077 1149.19231,52.3545192 1149.19231,53.7884615 C1149.19231,54.5067308 1149.4874,55.1497115 1149.96077,55.6161538 L1149.95298,55.6248077 L1149.95298,55.6248077 Z M1179.48077,58.1153846 C1180.19904,58.1153846 1180.84202,57.8194231 1181.30933,57.3469231 L1181.31712,57.3547115 L1183.04788,55.6239423 L1183.0401,55.6161538 C1183.5126,55.1497115 1183.80769,54.5067308 1183.80769,53.7884615 C1183.80769,52.3545192 1182.64548,51.1923077 1181.21154,51.1923077 C1180.49327,51.1923077 1179.85029,51.4874038 1179.38298,51.9607692 L1179.37519,51.9529808 L1177.64442,53.68375 L1177.65221,53.6915385 C1177.18058,54.1579808 1176.88462,54.8009615 1176.88462,55.5192308 C1176.88462,56.9531731 1178.04683,58.1153846 1179.48077,58.1153846 L1179.48077,58.1153846 Z M1150.92308,68.5 C1150.92308,67.0660577 1149.76087,65.9038462 1148.32692,65.9038462 L1146.59615,65.9038462 C1145.16221,65.9038462 1144,67.0660577 1144,68.5 C1144,69.9339423 1145.16221,71.0961538 1146.59615,71.0961538 L1148.32692,71.0961538 C1149.76087,71.0961538 1150.92308,69.9339423 1150.92308,68.5 L1150.92308,68.5 Z M1166.5,52.9230769 C1167.93394,52.9230769 1169.09615,51.7608654 1169.09615,50.3269231 L1169.09615,48.5961538 C1169.09615,47.1622115 1167.93394,46 1166.5,46 C1165.06606,46 1163.90385,47.1622115 1163.90385,48.5961538 L1163.90385,50.3269231 C1163.90385,51.7608654 1165.06606,52.9230769 1166.5,52.9230769 L1166.5,52.9230769 Z M1166.5,58.1153846 C1160.7651,58.1153846 1156.11538,62.7650962 1156.11538,68.5 C1156.11538,69.3835577 1156.2374,70.2368269 1156.4451,71.0554808 L1157.46885,73.6152885 C1159.25413,76.7592308 1162.62654,78.8846154 1166.5,78.8846154 C1172.2349,78.8846154 1176.88462,74.2357692 1176.88462,68.5 C1176.88462,62.7650962 1172.2349,58.1153846 1166.5,58.1153846 L1166.5,58.1153846 Z M1166.5,73.6923077 C1163.63212,73.6923077 1161.30769,71.3678846 1161.30769,68.5 C1161.30769,65.6321154 1163.63212,63.3076923 1166.5,63.3076923 C1169.36788,63.3076923 1171.69231,65.6321154 1171.69231,68.5 C1171.69231,71.3678846 1169.36788,73.6923077 1166.5,73.6923077 L1166.5,73.6923077 Z M1181.31625,79.6452885 C1180.84635,79.1753846 1180.19731,78.8846154 1179.48077,78.8846154 C1178.04683,78.8846154 1176.88462,80.0468269 1176.88462,81.4807692 C1176.88462,82.1973077 1177.17538,82.8463462 1177.64529,83.31625 L1179.37606,85.0470192 C1179.84596,85.5169231 1180.495,85.8076923 1181.21154,85.8076923 C1182.64548,85.8076923 1183.80769,84.6454808 1183.80769,83.2115385 C1183.80769,82.495 1183.51692,81.8459615 1183.04702,81.3760577 L1181.31625,79.6452885 L1181.31625,79.6452885 Z M1153.51923,78.8846154 C1152.80269,78.8846154 1152.15365,79.1753846 1151.68375,79.6452885 L1149.95298,81.3760577 C1149.48308,81.8459615 1149.19231,82.495 1149.19231,83.2115385 C1149.19231,84.6454808 1150.35452,85.8076923 1151.78846,85.8076923 C1152.505,85.8076923 1153.1549,85.5169231 1153.62394,85.0470192 L1155.35471,83.31625 C1155.82462,82.8472115 1156.11538,82.1973077 1156.11538,81.4807692 C1156.11538,80.0468269 1154.95317,78.8846154 1153.51923,78.8846154 L1153.51923,78.8846154 Z M1186.40385,65.9038462 L1184.67308,65.9038462 C1183.23913,65.9038462 1182.07692,67.0660577 1182.07692,68.5 C1182.07692,69.9339423 1183.23913,71.0961538 1184.67308,71.0961538 L1186.40385,71.0961538 C1187.83779,71.0961538 1189,69.9339423 1189,68.5 C1189,67.0660577 1187.83779,65.9038462 1186.40385,65.9038462 L1186.40385,65.9038462 Z M1166.5,84.0769231 C1165.06606,84.0769231 1163.90385,85.2391346 1163.90385,86.6730769 L1163.90385,88.4038462 C1163.90385,89.8377885 1165.06606,91 1166.5,91 C1167.93394,91 1169.09615,89.8377885 1169.09615,88.4038462 L1169.09615,86.6730769 C1169.09615,85.2391346 1167.93394,84.0769231 1166.5,84.0769231 L1166.5,84.0769231 Z" id="Shape" sketch:type="MSShapeGroup"></path>
        </g>
    </g>
</svg>