<?xml version="1.0" encoding="UTF-8" standalone="no"?>
<svg width="44px" height="44px" viewBox="0 0 44 44" version="1.1" xmlns="http://www.w3.org/2000/svg" xmlns:xlink="http://www.w3.org/1999/xlink" xmlns:sketch="http://www.bohemiancoding.com/sketch/ns">
    <!-- Generator: Sketch 3.3.3 (12072) - http://www.bohemiancoding.com/sketch -->
    <title>cog</title>
    <desc>Created with Sketch.</desc>
    <defs></defs>
    <g id="Page-1" stroke="none" stroke-width="1" fill="none" fill-rule="evenodd" sketch:type="MSPage">
        <g id="bouquet-2" sketch:type="MSArtboardGroup" transform="translate(-1142.000000, -526.000000)" fill="#FFFFFF">
            <g id="cog" sketch:type="MSLayerGroup" transform="translate(1142.000000, 526.000000)">
                <g id="COG_1_" sketch:type="MSShapeGroup">
                    <g id="COG">
                        <path d="M22.4993833,14.4365815 C18.0465198,14.4365815 14.4362534,18.046176 14.4362534,22.4997114 C14.4362534,26.9525749 18.0458479,30.5628413 22.4993833,30.5628413 C26.9529187,30.5628413 30.5625132,26.9525749 30.5625132,22.4997114 C30.5625132,18.0468479 26.9522468,14.4365815 22.4993833,14.4365815 L22.4993833,14.4365815 Z M22.4993833,26.5312763 C20.2726156,26.5312763 18.4678183,24.7264791 18.4678183,22.4997114 C18.4678183,20.2729437 20.2726156,18.4681464 22.4993833,18.4681464 C24.726151,18.4681464 26.5309483,20.2729437 26.5309483,22.4997114 C26.5309483,24.7264791 24.726151,26.5312763 22.4993833,26.5312763 L22.4993833,26.5312763 Z M38.3017741,18.1066494 C37.9382613,16.7916873 37.4107983,15.5459337 36.7489497,14.3868588 C37.5021804,13.3742641 40.0951486,9.58728073 38.2265182,7.71730651 L37.2670058,6.70471177 C35.6684903,5.10686819 31.5858588,7.60240691 30.5940938,8.24880116 C29.4215804,7.58426486 28.1617163,7.05680178 26.8312999,6.69664864 C26.6182989,5.42872146 25.6863354,0.994 23.0557393,0.994 L22.0028289,0.994 C19.7444806,0.994 18.4483324,5.57923322 18.1587317,6.72822924 C16.8471292,7.09442972 15.6047353,7.62458051 14.4483481,8.28710102 C13.5365425,7.60912618 9.62592445,4.90596187 7.71697844,6.81423596 L6.7043837,7.66624002 C5.04069123,9.32926057 7.80500094,13.7162752 8.31029041,14.4842883 C7.67061544,15.6252212 7.15793476,16.8474573 6.8045009,18.1362142 C5.70186788,18.3122592 0.993,19.2207052 0.993,21.9299169 L0.993,22.9821553 C0.993,25.3291981 5.93099516,26.6327374 6.83204993,26.8517858 C7.19018728,28.1311357 7.70555567,29.3439648 8.34724643,30.4761627 C7.81575178,31.3086808 5.15895046,35.6762095 6.80718861,37.3257915 L7.76602914,38.1240414 C9.93568302,40.2936953 14.467834,36.7297919 14.467834,36.7297919 L14.2568487,36.5053681 C15.458927,37.2162674 16.7604506,37.7793426 18.1358862,38.165029 C18.3609819,39.091617 19.6645212,43.9953439 22.0028289,43.9953439 L23.0557393,43.9953439 C26.1237602,43.9953439 26.8837102,38.2698497 26.8837102,38.2698497 L26.6028445,38.2611146 C27.9930625,37.905665 29.3113842,37.3708107 30.5342923,36.6854446 C31.4924609,37.3231038 35.5072277,39.8354407 37.1097747,38.2335656 L38.1761237,37.1665447 C40.3148689,35.0277995 36.8342845,30.6515357 36.736855,30.5299169 C37.3980316,29.3728577 37.9281824,28.1304638 38.2930391,26.8175175 C39.48907,26.5138062 43.993,25.2223616 43.993,22.9828273 L43.993,21.9305888 C43.993,18.9586535 38.636394,18.1543563 38.3017741,18.1066494 L38.3017741,18.1066494 Z M22.4993833,34.5944063 C15.8197521,34.5944063 10.4046884,29.1793426 10.4046884,22.4997114 C10.4046884,15.8200802 15.8197521,10.4050165 22.4993833,10.4050165 C29.1790145,10.4050165 34.5940782,15.8200802 34.5940782,22.4997114 C34.5940782,29.1793426 29.1790145,34.5944063 22.4993833,34.5944063 L22.4993833,34.5944063 Z" id="Shape"></path>
                    </g>
                </g>
            </g>
        </g>
    </g>
</svg>